<svg width="1200" height="57" viewBox="0 0 1200 57" fill="none" xmlns="http://www.w3.org/2000/svg">
<rect y="0.461914" width="1200" height="1" fill="#E5E7EB"/>
<g clip-path="url(#clip0_4964_73)">
<path d="M24 44.4619C24 37.8345 18.6274 32.4619 12 32.4619C5.37258 32.4619 0 37.8345 0 44.4619C0 50.4514 4.3882 55.4159 10.125 56.3161V47.9307H7.07812V44.4619H10.125V41.8182C10.125 38.8107 11.9166 37.1494 14.6576 37.1494C15.9701 37.1494 17.3438 37.3838 17.3438 37.3838V40.3369H15.8306C14.34 40.3369 13.875 41.262 13.875 42.2119V44.4619H17.2031L16.6711 47.9307H13.875V56.3161C19.6118 55.4159 24 50.4514 24 44.4619Z" fill="#9CA3AF"/>
</g>
<path d="M47.5502 54.2126C56.6045 54.2126 61.5583 46.7094 61.5583 40.2045C61.5583 39.9936 61.5536 39.7779 61.5442 39.567C62.5079 38.8701 63.3395 38.0069 64 37.0179C63.1025 37.4172 62.1496 37.678 61.1739 37.7914C62.2013 37.1756 62.9705 36.2081 63.3391 35.0684C62.3726 35.6412 61.3156 36.0453 60.2134 36.2633C59.4708 35.4742 58.489 34.9518 57.4197 34.7767C56.3504 34.6016 55.2532 34.7837 54.2977 35.2947C53.3423 35.8058 52.5818 36.6174 52.1338 37.604C51.6859 38.5906 51.5754 39.6973 51.8195 40.7529C49.8625 40.6547 47.9479 40.1464 46.2 39.2607C44.452 38.3751 42.9097 37.1321 41.673 35.6122C41.0444 36.6959 40.8521 37.9783 41.135 39.1987C41.418 40.4192 42.1551 41.4861 43.1964 42.1826C42.4146 42.1578 41.65 41.9473 40.9656 41.5686V41.6295C40.9649 42.7668 41.3581 43.8692 42.0783 44.7494C42.7985 45.6296 43.8013 46.2332 44.9162 46.4576C44.1921 46.6558 43.432 46.6846 42.6948 46.542C43.0095 47.5201 43.6216 48.3755 44.4458 48.989C45.27 49.6024 46.2651 49.9432 47.2923 49.9639C45.5484 51.3338 43.3942 52.0768 41.1766 52.0733C40.7833 52.0727 40.3904 52.0486 40 52.0011C42.2529 53.4464 44.8735 54.214 47.5502 54.2126Z" fill="#9CA3AF"/>
<g clip-path="url(#clip1_4964_73)">
<path d="M92 34.6229C95.2063 34.6229 95.5859 34.6369 96.8469 34.6932C98.0188 34.7447 98.6516 34.9416 99.0734 35.1057C99.6313 35.3213 100.034 35.5838 100.452 36.001C100.873 36.4229 101.131 36.8213 101.347 37.3791C101.511 37.801 101.708 38.4385 101.759 39.6057C101.816 40.8713 101.83 41.251 101.83 44.4525C101.83 47.6588 101.816 48.0385 101.759 49.2994C101.708 50.4713 101.511 51.1041 101.347 51.526C101.131 52.0838 100.869 52.4869 100.452 52.9041C100.03 53.326 99.6313 53.5838 99.0734 53.7994C98.6516 53.9635 98.0141 54.1604 96.8469 54.2119C95.5813 54.2682 95.2016 54.2822 92 54.2822C88.7938 54.2822 88.4141 54.2682 87.1531 54.2119C85.9813 54.1604 85.3484 53.9635 84.9266 53.7994C84.3688 53.5838 83.9656 53.3213 83.5484 52.9041C83.1266 52.4822 82.8688 52.0838 82.6531 51.526C82.4891 51.1041 82.2922 50.4666 82.2406 49.2994C82.1844 48.0338 82.1703 47.6541 82.1703 44.4525C82.1703 41.2463 82.1844 40.8666 82.2406 39.6057C82.2922 38.4338 82.4891 37.801 82.6531 37.3791C82.8688 36.8213 83.1313 36.4182 83.5484 36.001C83.9703 35.5791 84.3688 35.3213 84.9266 35.1057C85.3484 34.9416 85.9859 34.7447 87.1531 34.6932C88.4141 34.6369 88.7938 34.6229 92 34.6229ZM92 32.4619C88.7422 32.4619 88.3344 32.476 87.0547 32.5322C85.7797 32.5885 84.9031 32.7947 84.1438 33.09C83.3516 33.3994 82.6813 33.8072 82.0156 34.4775C81.3453 35.1432 80.9375 35.8135 80.6281 36.601C80.3328 37.365 80.1266 38.2369 80.0703 39.5119C80.0141 40.7963 80 41.2041 80 44.4619C80 47.7197 80.0141 48.1275 80.0703 49.4072C80.1266 50.6822 80.3328 51.5588 80.6281 52.3182C80.9375 53.1104 81.3453 53.7807 82.0156 54.4463C82.6813 55.1119 83.3516 55.5244 84.1391 55.8291C84.9031 56.1244 85.775 56.3307 87.05 56.3869C88.3297 56.4432 88.7375 56.4572 91.9953 56.4572C95.2531 56.4572 95.6609 56.4432 96.9406 56.3869C98.2156 56.3307 99.0922 56.1244 99.8516 55.8291C100.639 55.5244 101.309 55.1119 101.975 54.4463C102.641 53.7807 103.053 53.1104 103.358 52.3229C103.653 51.5588 103.859 50.6869 103.916 49.4119C103.972 48.1322 103.986 47.7244 103.986 44.4666C103.986 41.2088 103.972 40.801 103.916 39.5213C103.859 38.2463 103.653 37.3697 103.358 36.6104C103.062 35.8135 102.655 35.1432 101.984 34.4775C101.319 33.8119 100.648 33.3994 99.8609 33.0947C99.0969 32.7994 98.225 32.5932 96.95 32.5369C95.6656 32.476 95.2578 32.4619 92 32.4619Z" fill="#9CA3AF"/>
<path d="M92 38.2979C88.5969 38.2979 85.8359 41.0588 85.8359 44.4619C85.8359 47.865 88.5969 50.626 92 50.626C95.4031 50.626 98.1641 47.865 98.1641 44.4619C98.1641 41.0588 95.4031 38.2979 92 38.2979ZM92 48.4604C89.7922 48.4604 88.0016 46.6697 88.0016 44.4619C88.0016 42.2541 89.7922 40.4635 92 40.4635C94.2078 40.4635 95.9984 42.2541 95.9984 44.4619C95.9984 46.6697 94.2078 48.4604 92 48.4604Z" fill="#9CA3AF"/>
<path d="M99.8469 38.0533C99.8469 38.8502 99.2 39.4924 98.4078 39.4924C97.6109 39.4924 96.9688 38.8455 96.9688 38.0533C96.9688 37.2564 97.6156 36.6143 98.4078 36.6143C99.2 36.6143 99.8469 37.2611 99.8469 38.0533Z" fill="#9CA3AF"/>
</g>
<g clip-path="url(#clip2_4964_73)">
<path d="M142.223 32.4619H121.772C120.792 32.4619 120 33.2354 120 34.1916V54.7275C120 55.6838 120.792 56.4619 121.772 56.4619H142.223C143.203 56.4619 144 55.6838 144 54.7322V34.1916C144 33.2354 143.203 32.4619 142.223 32.4619ZM127.12 52.9135H123.558V41.4572H127.12V52.9135ZM125.339 39.8963C124.195 39.8963 123.272 38.9729 123.272 37.8338C123.272 36.6947 124.195 35.7713 125.339 35.7713C126.478 35.7713 127.402 36.6947 127.402 37.8338C127.402 38.9682 126.478 39.8963 125.339 39.8963ZM140.452 52.9135H136.894V47.3447C136.894 46.0182 136.87 44.3072 135.042 44.3072C133.191 44.3072 132.909 45.7557 132.909 47.251V52.9135H129.356V41.4572H132.769V43.0229H132.816C133.289 42.1229 134.452 41.1713 136.181 41.1713C139.786 41.1713 140.452 43.5432 140.452 46.6275V52.9135Z" fill="#9CA3AF"/>
</g>
<path d="M966.778 49.4619H965.131V40.8623H962.205V39.4678H969.697V40.8623H966.778V49.4619ZM974.179 41.751C974.854 41.751 975.432 41.89 975.915 42.168C976.399 42.446 976.77 42.8402 977.03 43.3506C977.289 43.861 977.419 44.4717 977.419 45.1826V46.0439H972.368C972.386 46.7777 972.582 47.3428 972.955 47.7393C973.334 48.1357 973.862 48.334 974.541 48.334C975.024 48.334 975.457 48.2884 975.84 48.1973C976.228 48.1016 976.626 47.9626 977.037 47.7803V49.0859C976.658 49.2637 976.273 49.3936 975.881 49.4756C975.489 49.5576 975.02 49.5986 974.473 49.5986C973.73 49.5986 973.076 49.4551 972.511 49.168C971.951 48.8763 971.511 48.4434 971.192 47.8691C970.877 47.2949 970.72 46.5817 970.72 45.7295C970.72 44.8818 970.864 44.1618 971.151 43.5693C971.438 42.9769 971.841 42.5257 972.361 42.2158C972.88 41.9059 973.486 41.751 974.179 41.751ZM974.179 42.9609C973.673 42.9609 973.263 43.125 972.949 43.4531C972.639 43.7812 972.456 44.262 972.402 44.8955H975.847C975.843 44.5173 975.779 44.1823 975.656 43.8906C975.537 43.599 975.355 43.3711 975.109 43.207C974.867 43.043 974.557 42.9609 974.179 42.9609ZM983.166 41.751C983.293 41.751 983.432 41.7578 983.583 41.7715C983.733 41.7852 983.863 41.8034 983.972 41.8262L983.822 43.3301C983.726 43.3027 983.608 43.2822 983.467 43.2686C983.33 43.2549 983.207 43.248 983.097 43.248C982.81 43.248 982.537 43.2959 982.277 43.3916C982.017 43.4827 981.787 43.624 981.587 43.8154C981.386 44.0023 981.229 44.237 981.115 44.5195C981.001 44.8021 980.944 45.1302 980.944 45.5039V49.4619H979.331V41.8945H980.589L980.807 43.2275H980.883C981.033 42.9587 981.22 42.7126 981.443 42.4893C981.666 42.266 981.922 42.0882 982.209 41.9561C982.5 41.8193 982.819 41.751 983.166 41.751ZM994.026 41.751C994.873 41.751 995.511 41.9697 995.94 42.4072C996.373 42.8447 996.589 43.5465 996.589 44.5127V49.4619H994.983V44.7998C994.983 44.2256 994.871 43.7926 994.648 43.501C994.424 43.2093 994.085 43.0635 993.629 43.0635C992.991 43.0635 992.531 43.2686 992.248 43.6787C991.97 44.0843 991.831 44.6745 991.831 45.4492V49.4619H990.225V44.7998C990.225 44.417 990.175 44.098 990.074 43.8428C989.979 43.583 989.831 43.3893 989.63 43.2617C989.43 43.1296 989.177 43.0635 988.871 43.0635C988.429 43.0635 988.076 43.1637 987.812 43.3643C987.552 43.5648 987.365 43.861 987.251 44.2529C987.137 44.6403 987.08 45.1165 987.08 45.6816V49.4619H985.474V41.8945H986.725L986.95 42.9131H987.039C987.194 42.6488 987.386 42.4323 987.613 42.2637C987.846 42.0905 988.103 41.9629 988.386 41.8809C988.668 41.7943 988.962 41.751 989.268 41.751C989.833 41.751 990.309 41.8512 990.696 42.0518C991.084 42.2477 991.373 42.5485 991.565 42.9541H991.688C991.925 42.5439 992.255 42.2409 992.679 42.0449C993.103 41.849 993.552 41.751 994.026 41.751ZM1004.02 47.3018C1004.02 47.7985 1003.9 48.2178 1003.65 48.5596C1003.41 48.9014 1003.06 49.1611 1002.6 49.3389C1002.14 49.512 1001.57 49.5986 1000.9 49.5986C1000.37 49.5986 999.916 49.5599 999.533 49.4824C999.155 49.4095 998.797 49.2956 998.46 49.1406V47.7529C998.82 47.9215 999.223 48.0674 999.67 48.1904C1000.12 48.3135 1000.55 48.375 1000.95 48.375C1001.48 48.375 1001.86 48.293 1002.09 48.1289C1002.32 47.9603 1002.44 47.737 1002.44 47.459C1002.44 47.2949 1002.39 47.1491 1002.29 47.0215C1002.2 46.8893 1002.03 46.7549 1001.78 46.6182C1001.52 46.4769 1001.16 46.3083 1000.67 46.1123C1000.19 45.9209 999.786 45.7295 999.458 45.5381C999.129 45.3467 998.881 45.1165 998.713 44.8477C998.544 44.5742 998.46 44.2256 998.46 43.8018C998.46 43.1318 998.724 42.6237 999.253 42.2773C999.786 41.9264 1000.49 41.751 1001.36 41.751C1001.83 41.751 1002.27 41.7988 1002.68 41.8945C1003.09 41.9857 1003.5 42.1201 1003.89 42.2979L1003.39 43.5078C1003.05 43.3574 1002.7 43.2344 1002.36 43.1387C1002.01 43.0384 1001.67 42.9883 1001.31 42.9883C1000.9 42.9883 1000.58 43.0521 1000.36 43.1797C1000.15 43.3073 1000.04 43.4896 1000.04 43.7266C1000.04 43.9043 1000.09 44.0547 1000.2 44.1777C1000.3 44.3008 1000.48 44.4238 1000.74 44.5469C1001 44.6699 1001.36 44.8226 1001.82 45.0049C1002.27 45.1781 1002.66 45.3604 1002.98 45.5518C1003.32 45.7386 1003.57 45.9688 1003.75 46.2422C1003.93 46.5156 1004.02 46.8688 1004.02 47.3018ZM1016.29 45.6611C1016.29 46.29 1016.21 46.8483 1016.04 47.3359C1015.88 47.8236 1015.64 48.236 1015.33 48.5732C1015.01 48.9059 1014.63 49.1611 1014.19 49.3389C1013.75 49.512 1013.25 49.5986 1012.69 49.5986C1012.17 49.5986 1011.7 49.512 1011.27 49.3389C1010.83 49.1611 1010.46 48.9059 1010.14 48.5732C1009.82 48.236 1009.58 47.8236 1009.41 47.3359C1009.23 46.8483 1009.15 46.29 1009.15 45.6611C1009.15 44.8271 1009.29 44.1208 1009.58 43.542C1009.87 42.9587 1010.28 42.5143 1010.82 42.209C1011.36 41.9036 1012 41.751 1012.74 41.751C1013.44 41.751 1014.05 41.9036 1014.59 42.209C1015.12 42.5143 1015.54 42.9587 1015.84 43.542C1016.14 44.1253 1016.29 44.8317 1016.29 45.6611ZM1010.8 45.6611C1010.8 46.2126 1010.87 46.6842 1011 47.0762C1011.14 47.4681 1011.34 47.7689 1011.63 47.9785C1011.91 48.1836 1012.27 48.2861 1012.72 48.2861C1013.17 48.2861 1013.53 48.1836 1013.81 47.9785C1014.1 47.7689 1014.3 47.4681 1014.44 47.0762C1014.57 46.6842 1014.64 46.2126 1014.64 45.6611C1014.64 45.1097 1014.57 44.6426 1014.44 44.2598C1014.3 43.8724 1014.1 43.5785 1013.81 43.3779C1013.53 43.1729 1013.17 43.0703 1012.71 43.0703C1012.05 43.0703 1011.56 43.2936 1011.26 43.7402C1010.95 44.1868 1010.8 44.8271 1010.8 45.6611ZM1022.02 43.1182H1020.18V49.4619H1018.57V43.1182H1017.33V42.3457L1018.57 41.874V41.3477C1018.57 40.7051 1018.67 40.1947 1018.87 39.8164C1019.08 39.4382 1019.37 39.167 1019.75 39.0029C1020.13 38.8343 1020.58 38.75 1021.11 38.75C1021.46 38.75 1021.78 38.7796 1022.06 38.8389C1022.35 38.8936 1022.59 38.9574 1022.79 39.0303L1022.37 40.2471C1022.22 40.1969 1022.04 40.1514 1021.85 40.1104C1021.66 40.0648 1021.45 40.042 1021.24 40.042C1020.87 40.042 1020.6 40.1559 1020.43 40.3838C1020.26 40.6117 1020.18 40.9443 1020.18 41.3818V41.8945H1022.02V43.1182ZM1033.08 46.7412C1033.08 47.3337 1032.93 47.8441 1032.64 48.2725C1032.35 48.7008 1031.94 49.029 1031.4 49.2568C1030.86 49.4847 1030.22 49.5986 1029.47 49.5986C1029.1 49.5986 1028.76 49.5781 1028.42 49.5371C1028.09 49.4961 1027.78 49.4368 1027.48 49.3594C1027.19 49.2773 1026.92 49.1794 1026.68 49.0654V47.5205C1027.08 47.6982 1027.54 47.86 1028.04 48.0059C1028.54 48.1471 1029.05 48.2178 1029.57 48.2178C1029.99 48.2178 1030.35 48.1631 1030.62 48.0537C1030.91 47.9398 1031.12 47.7803 1031.25 47.5752C1031.39 47.3656 1031.46 47.1217 1031.46 46.8438C1031.46 46.5475 1031.38 46.2969 1031.22 46.0918C1031.06 45.8867 1030.82 45.6999 1030.49 45.5312C1030.17 45.3581 1029.77 45.1735 1029.29 44.9775C1028.96 44.8454 1028.65 44.695 1028.35 44.5264C1028.05 44.3577 1027.79 44.1595 1027.55 43.9316C1027.32 43.7038 1027.14 43.4349 1027 43.125C1026.87 42.8105 1026.8 42.4414 1026.8 42.0176C1026.8 41.4525 1026.94 40.9694 1027.21 40.5684C1027.48 40.1673 1027.86 39.8597 1028.35 39.6455C1028.85 39.4313 1029.43 39.3242 1030.09 39.3242C1030.61 39.3242 1031.11 39.3789 1031.57 39.4883C1032.03 39.5977 1032.49 39.7526 1032.93 39.9531L1032.41 41.2725C1032 41.1038 1031.61 40.9694 1031.22 40.8691C1030.84 40.7689 1030.44 40.7188 1030.04 40.7188C1029.7 40.7188 1029.4 40.7712 1029.16 40.876C1028.92 40.9808 1028.73 41.1289 1028.61 41.3203C1028.48 41.5072 1028.42 41.7305 1028.42 41.9902C1028.42 42.2819 1028.49 42.528 1028.63 42.7285C1028.78 42.9245 1029 43.1045 1029.3 43.2686C1029.61 43.4326 1030 43.6149 1030.48 43.8154C1031.03 44.0433 1031.5 44.2826 1031.88 44.5332C1032.27 44.7839 1032.57 45.0846 1032.77 45.4355C1032.98 45.7819 1033.08 46.2171 1033.08 46.7412ZM1037.96 41.751C1038.63 41.751 1039.21 41.89 1039.69 42.168C1040.18 42.446 1040.55 42.8402 1040.81 43.3506C1041.07 43.861 1041.2 44.4717 1041.2 45.1826V46.0439H1036.14C1036.16 46.7777 1036.36 47.3428 1036.73 47.7393C1037.11 48.1357 1037.64 48.334 1038.32 48.334C1038.8 48.334 1039.23 48.2884 1039.62 48.1973C1040 48.1016 1040.4 47.9626 1040.81 47.7803V49.0859C1040.44 49.2637 1040.05 49.3936 1039.66 49.4756C1039.27 49.5576 1038.8 49.5986 1038.25 49.5986C1037.51 49.5986 1036.85 49.4551 1036.29 49.168C1035.73 48.8763 1035.29 48.4434 1034.97 47.8691C1034.65 47.2949 1034.5 46.5817 1034.5 45.7295C1034.5 44.8818 1034.64 44.1618 1034.93 43.5693C1035.21 42.9769 1035.62 42.5257 1036.14 42.2158C1036.66 41.9059 1037.26 41.751 1037.96 41.751ZM1037.96 42.9609C1037.45 42.9609 1037.04 43.125 1036.73 43.4531C1036.42 43.7812 1036.23 44.262 1036.18 44.8955H1039.62C1039.62 44.5173 1039.56 44.1823 1039.43 43.8906C1039.31 43.599 1039.13 43.3711 1038.89 43.207C1038.64 43.043 1038.33 42.9609 1037.96 42.9609ZM1046.94 41.751C1047.07 41.751 1047.21 41.7578 1047.36 41.7715C1047.51 41.7852 1047.64 41.8034 1047.75 41.8262L1047.6 43.3301C1047.5 43.3027 1047.38 43.2822 1047.24 43.2686C1047.11 43.2549 1046.98 43.248 1046.87 43.248C1046.59 43.248 1046.31 43.2959 1046.05 43.3916C1045.79 43.4827 1045.56 43.624 1045.36 43.8154C1045.16 44.0023 1045.01 44.237 1044.89 44.5195C1044.78 44.8021 1044.72 45.1302 1044.72 45.5039V49.4619H1043.11V41.8945H1044.37L1044.58 43.2275H1044.66C1044.81 42.9587 1045 42.7126 1045.22 42.4893C1045.44 42.266 1045.7 42.0882 1045.99 41.9561C1046.28 41.8193 1046.6 41.751 1046.94 41.751ZM1050.98 49.4619L1048.1 41.8945H1049.8L1051.36 46.3379C1051.46 46.6204 1051.55 46.9258 1051.64 47.2539C1051.72 47.582 1051.78 47.8577 1051.81 48.0811H1051.86C1051.89 47.8486 1051.96 47.5706 1052.05 47.2471C1052.14 46.9189 1052.23 46.6159 1052.33 46.3379L1053.89 41.8945H1055.58L1052.7 49.4619H1050.98ZM1058.44 41.8945V49.4619H1056.83V41.8945H1058.44ZM1057.64 38.9961C1057.89 38.9961 1058.1 39.0622 1058.28 39.1943C1058.46 39.3265 1058.55 39.5544 1058.55 39.8779C1058.55 40.1969 1058.46 40.4248 1058.28 40.5615C1058.1 40.6937 1057.89 40.7598 1057.64 40.7598C1057.39 40.7598 1057.17 40.6937 1056.99 40.5615C1056.82 40.4248 1056.73 40.1969 1056.73 39.8779C1056.73 39.5544 1056.82 39.3265 1056.99 39.1943C1057.17 39.0622 1057.39 38.9961 1057.64 38.9961ZM1063.89 49.5986C1063.17 49.5986 1062.55 49.4596 1062.03 49.1816C1061.5 48.9036 1061.1 48.4775 1060.82 47.9033C1060.54 47.3291 1060.4 46.5999 1060.4 45.7158C1060.4 44.7952 1060.55 44.0433 1060.86 43.46C1061.17 42.8766 1061.6 42.446 1062.15 42.168C1062.7 41.89 1063.33 41.751 1064.04 41.751C1064.49 41.751 1064.9 41.7965 1065.26 41.8877C1065.63 41.9743 1065.94 42.0814 1066.2 42.209L1065.72 43.4941C1065.44 43.3802 1065.16 43.2845 1064.87 43.207C1064.57 43.1296 1064.29 43.0908 1064.03 43.0908C1063.58 43.0908 1063.21 43.1888 1062.92 43.3848C1062.63 43.5807 1062.41 43.8724 1062.26 44.2598C1062.12 44.6471 1062.05 45.1279 1062.05 45.7021C1062.05 46.2581 1062.12 46.7275 1062.27 47.1104C1062.41 47.4886 1062.63 47.7757 1062.92 47.9717C1063.2 48.1631 1063.56 48.2588 1063.98 48.2588C1064.39 48.2588 1064.76 48.2087 1065.09 48.1084C1065.42 48.0081 1065.73 47.8783 1066.02 47.7188V49.1133C1065.73 49.2773 1065.43 49.3981 1065.1 49.4756C1064.77 49.5576 1064.37 49.5986 1063.89 49.5986ZM1070.91 41.751C1071.59 41.751 1072.17 41.89 1072.65 42.168C1073.13 42.446 1073.5 42.8402 1073.76 43.3506C1074.02 43.861 1074.15 44.4717 1074.15 45.1826V46.0439H1069.1C1069.12 46.7777 1069.32 47.3428 1069.69 47.7393C1070.07 48.1357 1070.6 48.334 1071.28 48.334C1071.76 48.334 1072.19 48.2884 1072.57 48.1973C1072.96 48.1016 1073.36 47.9626 1073.77 47.7803V49.0859C1073.39 49.2637 1073.01 49.3936 1072.62 49.4756C1072.22 49.5576 1071.75 49.5986 1071.21 49.5986C1070.46 49.5986 1069.81 49.4551 1069.25 49.168C1068.68 48.8763 1068.24 48.4434 1067.93 47.8691C1067.61 47.2949 1067.45 46.5817 1067.45 45.7295C1067.45 44.8818 1067.6 44.1618 1067.88 43.5693C1068.17 42.9769 1068.58 42.5257 1069.09 42.2158C1069.61 41.9059 1070.22 41.751 1070.91 41.751ZM1070.91 42.9609C1070.41 42.9609 1070 43.125 1069.68 43.4531C1069.37 43.7812 1069.19 44.262 1069.14 44.8955H1072.58C1072.58 44.5173 1072.51 44.1823 1072.39 43.8906C1072.27 43.599 1072.09 43.3711 1071.84 43.207C1071.6 43.043 1071.29 42.9609 1070.91 42.9609Z" fill="#6B7280"/>
<path d="M1111.22 39.4678C1112.51 39.4678 1113.45 39.7321 1114.04 40.2607C1114.63 40.7894 1114.93 41.5299 1114.93 42.4824C1114.93 42.9154 1114.86 43.3278 1114.72 43.7197C1114.59 44.1071 1114.37 44.4512 1114.07 44.752C1113.76 45.0482 1113.36 45.2829 1112.86 45.4561C1112.36 45.6292 1111.75 45.7158 1111.02 45.7158H1109.95V49.4619H1108.31V39.4678H1111.22ZM1111.11 40.8281H1109.95V44.3486H1110.85C1111.36 44.3486 1111.8 44.2894 1112.16 44.1709C1112.52 44.0479 1112.79 43.8542 1112.98 43.5898C1113.17 43.3255 1113.26 42.9769 1113.26 42.5439C1113.26 41.9652 1113.09 41.5345 1112.74 41.252C1112.39 40.9694 1111.85 40.8281 1111.11 40.8281ZM1120.7 41.751C1120.82 41.751 1120.96 41.7578 1121.11 41.7715C1121.26 41.7852 1121.39 41.8034 1121.5 41.8262L1121.35 43.3301C1121.26 43.3027 1121.14 43.2822 1121 43.2686C1120.86 43.2549 1120.74 43.248 1120.63 43.248C1120.34 43.248 1120.07 43.2959 1119.81 43.3916C1119.55 43.4827 1119.32 43.624 1119.12 43.8154C1118.92 44.0023 1118.76 44.237 1118.65 44.5195C1118.53 44.8021 1118.48 45.1302 1118.48 45.5039V49.4619H1116.86V41.8945H1118.12L1118.34 43.2275H1118.41C1118.56 42.9587 1118.75 42.7126 1118.97 42.4893C1119.2 42.266 1119.45 42.0882 1119.74 41.9561C1120.03 41.8193 1120.35 41.751 1120.7 41.751ZM1124.61 41.8945V49.4619H1123V41.8945H1124.61ZM1123.82 38.9961C1124.06 38.9961 1124.28 39.0622 1124.45 39.1943C1124.64 39.3265 1124.73 39.5544 1124.73 39.8779C1124.73 40.1969 1124.64 40.4248 1124.45 40.5615C1124.28 40.6937 1124.06 40.7598 1123.82 40.7598C1123.56 40.7598 1123.35 40.6937 1123.17 40.5615C1123 40.4248 1122.91 40.1969 1122.91 39.8779C1122.91 39.5544 1123 39.3265 1123.17 39.1943C1123.35 39.0622 1123.56 38.9961 1123.82 38.9961ZM1128.74 49.4619L1125.87 41.8945H1127.57L1129.13 46.3379C1129.23 46.6204 1129.32 46.9258 1129.4 47.2539C1129.48 47.582 1129.54 47.8577 1129.57 48.0811H1129.63C1129.66 47.8486 1129.72 47.5706 1129.81 47.2471C1129.9 46.9189 1130 46.6159 1130.09 46.3379L1131.65 41.8945H1133.34L1130.47 49.4619H1128.74ZM1137.56 41.751C1138.52 41.751 1139.24 41.9629 1139.73 42.3867C1140.22 42.8105 1140.47 43.4714 1140.47 44.3691V49.4619H1139.32L1139.02 48.3887H1138.96C1138.75 48.6621 1138.53 48.8877 1138.3 49.0654C1138.07 49.2432 1137.81 49.3753 1137.51 49.4619C1137.21 49.5531 1136.85 49.5986 1136.42 49.5986C1135.97 49.5986 1135.56 49.5166 1135.21 49.3525C1134.85 49.1839 1134.57 48.9287 1134.37 48.5869C1134.16 48.2451 1134.06 47.8122 1134.06 47.2881C1134.06 46.5088 1134.35 45.9232 1134.93 45.5312C1135.51 45.1393 1136.39 44.9229 1137.57 44.8818L1138.88 44.834V44.4375C1138.88 43.9134 1138.76 43.5397 1138.51 43.3164C1138.27 43.0931 1137.93 42.9814 1137.48 42.9814C1137.11 42.9814 1136.74 43.0361 1136.38 43.1455C1136.03 43.2549 1135.68 43.3893 1135.35 43.5488L1134.83 42.4141C1135.19 42.2181 1135.61 42.0586 1136.08 41.9355C1136.56 41.8125 1137.05 41.751 1137.56 41.751ZM1138.87 45.8457L1137.9 45.8799C1137.09 45.9072 1136.53 46.0439 1136.21 46.29C1135.88 46.5361 1135.72 46.8734 1135.72 47.3018C1135.72 47.6755 1135.83 47.9489 1136.06 48.1221C1136.28 48.2907 1136.57 48.375 1136.94 48.375C1137.49 48.375 1137.95 48.2178 1138.32 47.9033C1138.69 47.5843 1138.87 47.1172 1138.87 46.502V45.8457ZM1145.86 49.5986C1145.15 49.5986 1144.53 49.4596 1144 49.1816C1143.48 48.9036 1143.08 48.4775 1142.79 47.9033C1142.51 47.3291 1142.37 46.5999 1142.37 45.7158C1142.37 44.7952 1142.53 44.0433 1142.83 43.46C1143.14 42.8766 1143.57 42.446 1144.12 42.168C1144.67 41.89 1145.3 41.751 1146.01 41.751C1146.46 41.751 1146.87 41.7965 1147.24 41.8877C1147.61 41.9743 1147.92 42.0814 1148.17 42.209L1147.7 43.4941C1147.42 43.3802 1147.13 43.2845 1146.84 43.207C1146.55 43.1296 1146.27 43.0908 1146 43.0908C1145.56 43.0908 1145.19 43.1888 1144.89 43.3848C1144.6 43.5807 1144.38 43.8724 1144.24 44.2598C1144.1 44.6471 1144.02 45.1279 1144.02 45.7021C1144.02 46.2581 1144.1 46.7275 1144.24 47.1104C1144.39 47.4886 1144.61 47.7757 1144.89 47.9717C1145.18 48.1631 1145.53 48.2588 1145.95 48.2588C1146.37 48.2588 1146.74 48.2087 1147.07 48.1084C1147.39 48.0081 1147.7 47.8783 1148 47.7188V49.1133C1147.71 49.2773 1147.4 49.3981 1147.07 49.4756C1146.75 49.5576 1146.34 49.5986 1145.86 49.5986ZM1148.73 41.8945H1150.48L1152.03 46.2148C1152.1 46.4108 1152.16 46.6045 1152.22 46.7959C1152.28 46.9827 1152.33 47.1673 1152.37 47.3496C1152.41 47.5319 1152.45 47.7142 1152.48 47.8965H1152.52C1152.56 47.6595 1152.63 47.3952 1152.71 47.1035C1152.8 46.8073 1152.89 46.5111 1153 46.2148L1154.49 41.8945H1156.22L1152.97 50.501C1152.78 50.9932 1152.55 51.4124 1152.28 51.7588C1152.01 52.1097 1151.69 52.374 1151.32 52.5518C1150.95 52.734 1150.53 52.8252 1150.06 52.8252C1149.83 52.8252 1149.63 52.8115 1149.46 52.7842C1149.29 52.7614 1149.15 52.7363 1149.03 52.709V51.4238C1149.13 51.4466 1149.25 51.4671 1149.39 51.4854C1149.54 51.5036 1149.69 51.5127 1149.85 51.5127C1150.13 51.5127 1150.38 51.4557 1150.59 51.3418C1150.8 51.2279 1150.98 51.0661 1151.12 50.8564C1151.27 50.6514 1151.39 50.4167 1151.49 50.1523L1151.75 49.4414L1148.73 41.8945ZM1164.27 39.4678C1165.56 39.4678 1166.5 39.7321 1167.09 40.2607C1167.69 40.7894 1167.98 41.5299 1167.98 42.4824C1167.98 42.9154 1167.92 43.3278 1167.78 43.7197C1167.65 44.1071 1167.43 44.4512 1167.12 44.752C1166.82 45.0482 1166.41 45.2829 1165.91 45.4561C1165.42 45.6292 1164.8 45.7158 1164.07 45.7158H1163.01V49.4619H1161.37V39.4678H1164.27ZM1164.16 40.8281H1163.01V44.3486H1163.9C1164.42 44.3486 1164.86 44.2894 1165.22 44.1709C1165.58 44.0479 1165.85 43.8542 1166.04 43.5898C1166.22 43.3255 1166.32 42.9769 1166.32 42.5439C1166.32 41.9652 1166.14 41.5345 1165.79 41.252C1165.44 40.9694 1164.9 40.8281 1164.16 40.8281ZM1176.61 45.6611C1176.61 46.29 1176.53 46.8483 1176.37 47.3359C1176.2 47.8236 1175.97 48.236 1175.65 48.5732C1175.34 48.9059 1174.96 49.1611 1174.52 49.3389C1174.07 49.512 1173.58 49.5986 1173.02 49.5986C1172.5 49.5986 1172.02 49.512 1171.59 49.3389C1171.16 49.1611 1170.78 48.9059 1170.46 48.5732C1170.15 48.236 1169.9 47.8236 1169.73 47.3359C1169.56 46.8483 1169.47 46.29 1169.47 45.6611C1169.47 44.8271 1169.61 44.1208 1169.9 43.542C1170.19 42.9587 1170.61 42.5143 1171.15 42.209C1171.68 41.9036 1172.32 41.751 1173.07 41.751C1173.76 41.751 1174.38 41.9036 1174.91 42.209C1175.45 42.5143 1175.86 42.9587 1176.16 43.542C1176.46 44.1253 1176.61 44.8317 1176.61 45.6611ZM1171.13 45.6611C1171.13 46.2126 1171.19 46.6842 1171.32 47.0762C1171.46 47.4681 1171.67 47.7689 1171.95 47.9785C1172.24 48.1836 1172.6 48.2861 1173.05 48.2861C1173.49 48.2861 1173.86 48.1836 1174.14 47.9785C1174.42 47.7689 1174.63 47.4681 1174.76 47.0762C1174.89 46.6842 1174.96 46.2126 1174.96 45.6611C1174.96 45.1097 1174.89 44.6426 1174.76 44.2598C1174.63 43.8724 1174.42 43.5785 1174.14 43.3779C1173.86 43.1729 1173.49 43.0703 1173.04 43.0703C1172.37 43.0703 1171.89 43.2936 1171.58 43.7402C1171.28 44.1868 1171.13 44.8271 1171.13 45.6611ZM1180.17 49.4619H1178.56V38.8252H1180.17V49.4619ZM1184.18 41.8945V49.4619H1182.57V41.8945H1184.18ZM1183.38 38.9961C1183.63 38.9961 1183.84 39.0622 1184.02 39.1943C1184.2 39.3265 1184.29 39.5544 1184.29 39.8779C1184.29 40.1969 1184.2 40.4248 1184.02 40.5615C1183.84 40.6937 1183.63 40.7598 1183.38 40.7598C1183.13 40.7598 1182.91 40.6937 1182.73 40.5615C1182.56 40.4248 1182.47 40.1969 1182.47 39.8779C1182.47 39.5544 1182.56 39.3265 1182.73 39.1943C1182.91 39.0622 1183.13 38.9961 1183.38 38.9961ZM1189.63 49.5986C1188.91 49.5986 1188.29 49.4596 1187.77 49.1816C1187.25 48.9036 1186.84 48.4775 1186.56 47.9033C1186.28 47.3291 1186.14 46.5999 1186.14 45.7158C1186.14 44.7952 1186.29 44.0433 1186.6 43.46C1186.91 42.8766 1187.34 42.446 1187.89 42.168C1188.44 41.89 1189.07 41.751 1189.78 41.751C1190.23 41.751 1190.64 41.7965 1191 41.8877C1191.37 41.9743 1191.69 42.0814 1191.94 42.209L1191.46 43.4941C1191.18 43.3802 1190.9 43.2845 1190.61 43.207C1190.32 43.1296 1190.04 43.0908 1189.77 43.0908C1189.32 43.0908 1188.96 43.1888 1188.66 43.3848C1188.37 43.5807 1188.15 43.8724 1188 44.2598C1187.86 44.6471 1187.79 45.1279 1187.79 45.7021C1187.79 46.2581 1187.86 46.7275 1188.01 47.1104C1188.16 47.4886 1188.37 47.7757 1188.66 47.9717C1188.95 48.1631 1189.3 48.2588 1189.72 48.2588C1190.13 48.2588 1190.5 48.2087 1190.83 48.1084C1191.16 48.0081 1191.47 47.8783 1191.76 47.7188V49.1133C1191.48 49.2773 1191.17 49.3981 1190.84 49.4756C1190.51 49.5576 1190.11 49.5986 1189.63 49.5986ZM1192.5 41.8945H1194.25L1195.8 46.2148C1195.87 46.4108 1195.93 46.6045 1195.98 46.7959C1196.04 46.9827 1196.09 47.1673 1196.13 47.3496C1196.18 47.5319 1196.22 47.7142 1196.24 47.8965H1196.29C1196.33 47.6595 1196.39 47.3952 1196.48 47.1035C1196.56 46.8073 1196.66 46.5111 1196.76 46.2148L1198.25 41.8945H1199.98L1196.74 50.501C1196.55 50.9932 1196.32 51.4124 1196.05 51.7588C1195.78 52.1097 1195.46 52.374 1195.09 52.5518C1194.72 52.734 1194.3 52.8252 1193.82 52.8252C1193.6 52.8252 1193.4 52.8115 1193.23 52.7842C1193.06 52.7614 1192.92 52.7363 1192.8 52.709V51.4238C1192.89 51.4466 1193.02 51.4671 1193.16 51.4854C1193.31 51.5036 1193.46 51.5127 1193.61 51.5127C1193.9 51.5127 1194.15 51.4557 1194.36 51.3418C1194.57 51.2279 1194.74 51.0661 1194.89 50.8564C1195.04 50.6514 1195.16 50.4167 1195.25 50.1523L1195.52 49.4414L1192.5 41.8945Z" fill="#6B7280"/>
<defs>
<clipPath id="clip0_4964_73">
<rect width="24" height="24" fill="white" transform="translate(0 32.4619)"/>
</clipPath>
<clipPath id="clip1_4964_73">
<rect width="24" height="24" fill="white" transform="translate(80 32.4619)"/>
</clipPath>
<clipPath id="clip2_4964_73">
<rect width="24" height="24" fill="white" transform="translate(120 32.4619)"/>
</clipPath>
</defs>
</svg>
