<svg width="149" height="73" viewBox="0 0 149 73" fill="none" xmlns="http://www.w3.org/2000/svg">
<path d="M9.92676 10.3691C9.92676 11.4948 9.71712 12.4359 9.29785 13.1924C8.87858 13.9443 8.27018 14.5117 7.47266 14.8945C6.67513 15.2728 5.71354 15.4619 4.58789 15.4619H1.8125V5.46777H4.88867C5.92318 5.46777 6.81641 5.65462 7.56836 6.02832C8.32031 6.39746 8.90137 6.94661 9.31152 7.67578C9.72168 8.40039 9.92676 9.29818 9.92676 10.3691ZM8.21777 10.417C8.21777 9.59668 8.08789 8.9222 7.82812 8.39355C7.57292 7.86491 7.19466 7.47298 6.69336 7.21777C6.19661 6.95801 5.58366 6.82812 4.85449 6.82812H3.45312V14.0879H4.61523C5.82292 14.0879 6.72526 13.7803 7.32227 13.165C7.91927 12.5498 8.21777 11.6338 8.21777 10.417ZM18.7152 11.6611C18.7152 12.29 18.6332 12.8483 18.4691 13.3359C18.3051 13.8236 18.0658 14.236 17.7514 14.5732C17.4369 14.9059 17.0587 15.1611 16.6166 15.3389C16.1745 15.512 15.6755 15.5986 15.1195 15.5986C14.6 15.5986 14.1238 15.512 13.6908 15.3389C13.2579 15.1611 12.8819 14.9059 12.5629 14.5732C12.2484 14.236 12.0046 13.8236 11.8314 13.3359C11.6583 12.8483 11.5717 12.29 11.5717 11.6611C11.5717 10.8271 11.7152 10.1208 12.0023 9.54199C12.294 8.95866 12.7087 8.51432 13.2465 8.20898C13.7842 7.90365 14.4245 7.75098 15.1674 7.75098C15.8646 7.75098 16.4799 7.90365 17.0131 8.20898C17.5463 8.51432 17.9633 8.95866 18.2641 9.54199C18.5648 10.1253 18.7152 10.8317 18.7152 11.6611ZM13.226 11.6611C13.226 12.2126 13.2921 12.6842 13.4242 13.0762C13.5609 13.4681 13.7706 13.7689 14.0531 13.9785C14.3357 14.1836 14.7003 14.2861 15.1469 14.2861C15.5935 14.2861 15.9581 14.1836 16.2406 13.9785C16.5232 13.7689 16.7305 13.4681 16.8627 13.0762C16.9949 12.6842 17.0609 12.2126 17.0609 11.6611C17.0609 11.1097 16.9949 10.6426 16.8627 10.2598C16.7305 9.8724 16.5232 9.57845 16.2406 9.37793C15.9581 9.17285 15.5912 9.07031 15.14 9.07031C14.4747 9.07031 13.9893 9.29362 13.684 9.74023C13.3786 10.1868 13.226 10.8271 13.226 11.6611ZM26.8475 15.4551L25.8904 11.9346C25.8449 11.7614 25.7902 11.5518 25.7264 11.3057C25.6626 11.0596 25.5988 10.8066 25.535 10.5469C25.4712 10.2826 25.4119 10.0387 25.3572 9.81543C25.3071 9.59212 25.2684 9.41895 25.241 9.2959H25.1863C25.1635 9.41895 25.1271 9.59212 25.077 9.81543C25.0268 10.0387 24.9699 10.2826 24.9061 10.5469C24.8423 10.8112 24.7785 11.0687 24.7146 11.3193C24.6554 11.57 24.6007 11.7842 24.5506 11.9619L23.5457 15.4551H21.782L19.6629 7.8877H21.2898L22.2742 11.6475C22.338 11.9027 22.3995 12.1784 22.4588 12.4746C22.5226 12.7708 22.5773 13.0534 22.6229 13.3223C22.6684 13.5911 22.7026 13.8122 22.7254 13.9854H22.7801C22.7983 13.8623 22.8234 13.7074 22.8553 13.5205C22.8872 13.3291 22.9236 13.1309 22.9646 12.9258C23.0057 12.7161 23.0467 12.5202 23.0877 12.3379C23.1287 12.151 23.1674 12.0007 23.2039 11.8867L24.366 7.8877H26.1229L27.2371 11.8867C27.2872 12.0599 27.3419 12.2786 27.4012 12.543C27.4604 12.8027 27.5128 13.0648 27.5584 13.3291C27.6085 13.5889 27.6404 13.8053 27.6541 13.9785H27.7088C27.727 13.8236 27.7589 13.6139 27.8045 13.3496C27.8546 13.0807 27.9116 12.7959 27.9754 12.4951C28.0392 12.1898 28.1053 11.9072 28.1736 11.6475L29.1785 7.8877H30.7781L28.6453 15.4551H26.8475ZM36.1213 7.75098C36.9735 7.75098 37.6366 7.97201 38.1105 8.41406C38.5891 8.85156 38.8283 9.55566 38.8283 10.5264V15.4619H37.2219V10.8271C37.2219 10.2393 37.1011 9.79948 36.8596 9.50781C36.618 9.21159 36.2443 9.06348 35.7385 9.06348C35.0048 9.06348 34.4943 9.28906 34.2072 9.74023C33.9247 10.1914 33.7834 10.8454 33.7834 11.7021V15.4619H32.177V7.89453H33.4279L33.6535 8.91992H33.7424C33.9064 8.6556 34.1092 8.43913 34.3508 8.27051C34.5969 8.09733 34.8703 7.96745 35.1711 7.88086C35.4764 7.79427 35.7932 7.75098 36.1213 7.75098ZM42.7906 15.4619H41.1773V4.8252H42.7906V15.4619ZM51.8867 11.6611C51.8867 12.29 51.8047 12.8483 51.6406 13.3359C51.4766 13.8236 51.2373 14.236 50.9229 14.5732C50.6084 14.9059 50.2301 15.1611 49.7881 15.3389C49.346 15.512 48.847 15.5986 48.291 15.5986C47.7715 15.5986 47.2952 15.512 46.8623 15.3389C46.4294 15.1611 46.0534 14.9059 45.7344 14.5732C45.4199 14.236 45.1761 13.8236 45.0029 13.3359C44.8298 12.8483 44.7432 12.29 44.7432 11.6611C44.7432 10.8271 44.8867 10.1208 45.1738 9.54199C45.4655 8.95866 45.8802 8.51432 46.418 8.20898C46.9557 7.90365 47.596 7.75098 48.3389 7.75098C49.0361 7.75098 49.6514 7.90365 50.1846 8.20898C50.7178 8.51432 51.1348 8.95866 51.4355 9.54199C51.7363 10.1253 51.8867 10.8317 51.8867 11.6611ZM46.3975 11.6611C46.3975 12.2126 46.4635 12.6842 46.5957 13.0762C46.7324 13.4681 46.9421 13.7689 47.2246 13.9785C47.5072 14.1836 47.8717 14.2861 48.3184 14.2861C48.765 14.2861 49.1296 14.1836 49.4121 13.9785C49.6947 13.7689 49.902 13.4681 50.0342 13.0762C50.1663 12.6842 50.2324 12.2126 50.2324 11.6611C50.2324 11.1097 50.1663 10.6426 50.0342 10.2598C49.902 9.8724 49.6947 9.57845 49.4121 9.37793C49.1296 9.17285 48.7627 9.07031 48.3115 9.07031C47.6462 9.07031 47.1608 9.29362 46.8555 9.74023C46.5501 10.1868 46.3975 10.8271 46.3975 11.6611ZM56.7992 7.75098C57.7562 7.75098 58.4786 7.96289 58.9662 8.38672C59.4584 8.81055 59.7045 9.47135 59.7045 10.3691V15.4619H58.5629L58.2553 14.3887H58.2006C57.9864 14.6621 57.7654 14.8877 57.5375 15.0654C57.3096 15.2432 57.0453 15.3753 56.7445 15.4619C56.4483 15.5531 56.086 15.5986 55.6576 15.5986C55.2064 15.5986 54.8031 15.5166 54.4477 15.3525C54.0922 15.1839 53.8119 14.9287 53.6068 14.5869C53.4018 14.2451 53.2992 13.8122 53.2992 13.2881C53.2992 12.5088 53.5886 11.9232 54.1674 11.5312C54.7507 11.1393 55.6303 10.9229 56.8061 10.8818L58.1186 10.834V10.4375C58.1186 9.91341 57.9955 9.53971 57.7494 9.31641C57.5079 9.0931 57.1661 8.98145 56.724 8.98145C56.3458 8.98145 55.9789 9.03613 55.6234 9.14551C55.268 9.25488 54.9216 9.38932 54.5844 9.54883L54.0648 8.41406C54.434 8.2181 54.8533 8.05859 55.3227 7.93555C55.7966 7.8125 56.2888 7.75098 56.7992 7.75098ZM58.1117 11.8457L57.1342 11.8799C56.3321 11.9072 55.7693 12.0439 55.4457 12.29C55.1221 12.5361 54.9604 12.8734 54.9604 13.3018C54.9604 13.6755 55.072 13.9489 55.2953 14.1221C55.5186 14.2907 55.8126 14.375 56.1771 14.375C56.7331 14.375 57.1934 14.2178 57.558 13.9033C57.9271 13.5843 58.1117 13.1172 58.1117 12.502V11.8457ZM64.5965 15.5986C63.6941 15.5986 62.9695 15.2705 62.4227 14.6143C61.8803 13.9535 61.6092 12.9805 61.6092 11.6953C61.6092 10.3965 61.8849 9.41439 62.4363 8.74902C62.9923 8.08366 63.7238 7.75098 64.6307 7.75098C65.0135 7.75098 65.3484 7.80339 65.6355 7.9082C65.9227 8.00846 66.1688 8.14518 66.3738 8.31836C66.5835 8.49154 66.7612 8.68522 66.907 8.89941H66.9822C66.9594 8.75814 66.9321 8.55534 66.9002 8.29102C66.8729 8.02214 66.8592 7.77376 66.8592 7.5459V4.8252H68.4725V15.4619H67.2146L66.9275 14.4297H66.8592C66.7225 14.6484 66.5493 14.8467 66.3396 15.0244C66.1346 15.1976 65.8885 15.3366 65.6014 15.4414C65.3188 15.5462 64.9839 15.5986 64.5965 15.5986ZM65.0477 14.293C65.7358 14.293 66.2212 14.0947 66.5037 13.6982C66.7863 13.3018 66.9321 12.707 66.9412 11.9141V11.7021C66.9412 10.8545 66.8045 10.2051 66.5311 9.75391C66.2576 9.29818 65.7586 9.07031 65.034 9.07031C64.4552 9.07031 64.0132 9.30501 63.7078 9.77441C63.407 10.2393 63.2566 10.8887 63.2566 11.7227C63.2566 12.5566 63.407 13.1947 63.7078 13.6367C64.0132 14.0742 64.4598 14.293 65.0477 14.293ZM77.4293 14.2998C77.6389 14.2998 77.8463 14.2816 78.0514 14.2451C78.2564 14.2041 78.4433 14.1562 78.6119 14.1016V15.3184C78.4342 15.3958 78.204 15.4619 77.9215 15.5166C77.6389 15.5713 77.345 15.5986 77.0396 15.5986C76.6113 15.5986 76.2262 15.528 75.8844 15.3867C75.5426 15.2409 75.2714 14.9925 75.0709 14.6416C74.8704 14.2907 74.7701 13.8053 74.7701 13.1855V9.11816H73.7379V8.40039L74.8453 7.83301L75.3717 6.21289H76.3834V7.89453H78.5504V9.11816H76.3834V13.165C76.3834 13.5479 76.4791 13.8327 76.6705 14.0195C76.8619 14.2064 77.1148 14.2998 77.4293 14.2998ZM81.8564 4.8252V7.49805C81.8564 7.77604 81.8473 8.0472 81.8291 8.31152C81.8154 8.57585 81.7995 8.78092 81.7812 8.92676H81.8701C82.0296 8.66243 82.2256 8.44596 82.458 8.27734C82.6904 8.10417 82.9502 7.97428 83.2373 7.8877C83.529 7.80111 83.8389 7.75781 84.167 7.75781C84.7458 7.75781 85.238 7.85579 85.6436 8.05176C86.0492 8.24316 86.359 8.54167 86.5732 8.94727C86.792 9.35286 86.9014 9.87923 86.9014 10.5264V15.4619H85.2949V10.8271C85.2949 10.2393 85.1742 9.79948 84.9326 9.50781C84.6911 9.21159 84.3174 9.06348 83.8115 9.06348C83.3239 9.06348 82.9365 9.16602 82.6494 9.37109C82.3669 9.57161 82.1641 9.87012 82.041 10.2666C81.918 10.6585 81.8564 11.137 81.8564 11.7021V15.4619H80.25V4.8252H81.8564ZM92.265 7.75098C92.9395 7.75098 93.5183 7.88997 94.0014 8.16797C94.4844 8.44596 94.8559 8.84017 95.1156 9.35059C95.3754 9.861 95.5053 10.4717 95.5053 11.1826V12.0439H90.4535C90.4717 12.7777 90.6677 13.3428 91.0414 13.7393C91.4197 14.1357 91.9483 14.334 92.6273 14.334C93.1104 14.334 93.5434 14.2884 93.9262 14.1973C94.3135 14.1016 94.7123 13.9626 95.1225 13.7803V15.0859C94.7442 15.2637 94.3591 15.3936 93.9672 15.4756C93.5753 15.5576 93.1059 15.5986 92.559 15.5986C91.8161 15.5986 91.1622 15.4551 90.5971 15.168C90.0365 14.8763 89.5967 14.4434 89.2777 13.8691C88.9633 13.2949 88.8061 12.5817 88.8061 11.7295C88.8061 10.8818 88.9496 10.1618 89.2367 9.56934C89.5238 8.97689 89.9271 8.52572 90.4467 8.21582C90.9662 7.90592 91.5723 7.75098 92.265 7.75098ZM92.265 8.96094C91.7592 8.96094 91.349 9.125 91.0346 9.45312C90.7247 9.78125 90.5424 10.262 90.4877 10.8955H93.933C93.9284 10.5173 93.8646 10.1823 93.7416 9.89062C93.6231 9.59896 93.4408 9.37109 93.1947 9.20703C92.9532 9.04297 92.6433 8.96094 92.265 8.96094ZM104.12 7.75098C105.077 7.75098 105.8 7.96289 106.287 8.38672C106.779 8.81055 107.026 9.47135 107.026 10.3691V15.4619H105.884L105.576 14.3887H105.522C105.307 14.6621 105.086 14.8877 104.859 15.0654C104.631 15.2432 104.366 15.3753 104.066 15.4619C103.769 15.5531 103.407 15.5986 102.979 15.5986C102.528 15.5986 102.124 15.5166 101.769 15.3525C101.413 15.1839 101.133 14.9287 100.928 14.5869C100.723 14.2451 100.62 13.8122 100.62 13.2881C100.62 12.5088 100.91 11.9232 101.488 11.5312C102.072 11.1393 102.951 10.9229 104.127 10.8818L105.44 10.834V10.4375C105.44 9.91341 105.317 9.53971 105.071 9.31641C104.829 9.0931 104.487 8.98145 104.045 8.98145C103.667 8.98145 103.3 9.03613 102.945 9.14551C102.589 9.25488 102.243 9.38932 101.905 9.54883L101.386 8.41406C101.755 8.2181 102.174 8.05859 102.644 7.93555C103.118 7.8125 103.61 7.75098 104.12 7.75098ZM105.433 11.8457L104.455 11.8799C103.653 11.9072 103.09 12.0439 102.767 12.29C102.443 12.5361 102.281 12.8734 102.281 13.3018C102.281 13.6755 102.393 13.9489 102.616 14.1221C102.84 14.2907 103.134 14.375 103.498 14.375C104.054 14.375 104.515 14.2178 104.879 13.9033C105.248 13.5843 105.433 13.1172 105.433 12.502V11.8457ZM113.257 7.75098C114.155 7.75098 114.875 8.0791 115.418 8.73535C115.964 9.3916 116.238 10.3669 116.238 11.6611C116.238 12.5179 116.11 13.2402 115.855 13.8281C115.604 14.4115 115.251 14.8535 114.796 15.1543C114.344 15.4505 113.818 15.5986 113.216 15.5986C112.834 15.5986 112.501 15.5485 112.218 15.4482C111.936 15.348 111.694 15.2181 111.494 15.0586C111.293 14.8945 111.125 14.7168 110.988 14.5254H110.892C110.915 14.7077 110.935 14.9105 110.954 15.1338C110.976 15.3525 110.988 15.5531 110.988 15.7354V18.8184H109.375V7.89453H110.687L110.913 8.94043H110.988C111.129 8.72624 111.3 8.52799 111.501 8.3457C111.706 8.16341 111.952 8.01986 112.239 7.91504C112.531 7.80566 112.87 7.75098 113.257 7.75098ZM112.827 9.06348C112.385 9.06348 112.029 9.15234 111.76 9.33008C111.496 9.50326 111.302 9.7653 111.179 10.1162C111.061 10.4671 110.997 10.9069 110.988 11.4355V11.6611C110.988 12.2217 111.045 12.6979 111.159 13.0898C111.277 13.4772 111.471 13.7734 111.74 13.9785C112.013 14.179 112.382 14.2793 112.847 14.2793C113.239 14.2793 113.563 14.1722 113.818 13.958C114.078 13.7438 114.271 13.4385 114.399 13.042C114.527 12.6455 114.59 12.1784 114.59 11.6406C114.59 10.8249 114.445 10.1914 114.153 9.74023C113.866 9.28906 113.424 9.06348 112.827 9.06348ZM122.08 7.75098C122.978 7.75098 123.698 8.0791 124.24 8.73535C124.787 9.3916 125.061 10.3669 125.061 11.6611C125.061 12.5179 124.933 13.2402 124.678 13.8281C124.427 14.4115 124.074 14.8535 123.618 15.1543C123.167 15.4505 122.641 15.5986 122.039 15.5986C121.656 15.5986 121.324 15.5485 121.041 15.4482C120.758 15.348 120.517 15.2181 120.316 15.0586C120.116 14.8945 119.947 14.7168 119.811 14.5254H119.715C119.738 14.7077 119.758 14.9105 119.776 15.1338C119.799 15.3525 119.811 15.5531 119.811 15.7354V18.8184H118.197V7.89453H119.51L119.735 8.94043H119.811C119.952 8.72624 120.123 8.52799 120.323 8.3457C120.528 8.16341 120.774 8.01986 121.062 7.91504C121.353 7.80566 121.693 7.75098 122.08 7.75098ZM121.649 9.06348C121.207 9.06348 120.852 9.15234 120.583 9.33008C120.319 9.50326 120.125 9.7653 120.002 10.1162C119.883 10.4671 119.82 10.9069 119.811 11.4355V11.6611C119.811 12.2217 119.868 12.6979 119.981 13.0898C120.1 13.4772 120.294 13.7734 120.562 13.9785C120.836 14.179 121.205 14.2793 121.67 14.2793C122.062 14.2793 122.385 14.1722 122.641 13.958C122.9 13.7438 123.094 13.4385 123.222 13.042C123.349 12.6455 123.413 12.1784 123.413 11.6406C123.413 10.8249 123.267 10.1914 122.976 9.74023C122.688 9.28906 122.246 9.06348 121.649 9.06348Z" fill="#374151"/>
<rect x="1.05" y="29.0119" width="147.4" height="42.9" rx="4.95" fill="black"/>
<path d="M75.4494 52.3863C72.8622 52.3863 70.7535 54.3542 70.7535 57.0646C70.7535 59.7585 72.8622 61.7429 75.4494 61.7429C78.0377 61.7429 80.1464 59.7585 80.1464 57.0646C80.1453 54.3542 78.0366 52.3863 75.4494 52.3863ZM75.4494 59.9015C74.0315 59.9015 72.8094 58.7322 72.8094 57.0657C72.8094 55.3816 74.0326 54.2299 75.4494 54.2299C76.8673 54.2299 78.0894 55.3816 78.0894 57.0657C78.0894 58.7311 76.8673 59.9015 75.4494 59.9015ZM65.204 52.3863C62.6168 52.3863 60.5081 54.3542 60.5081 57.0646C60.5081 59.7585 62.6168 61.7429 65.204 61.7429C67.7923 61.7429 69.901 59.7585 69.901 57.0646C69.901 54.3542 67.7923 52.3863 65.204 52.3863ZM65.204 59.9015C63.7861 59.9015 62.564 58.7322 62.564 57.0657C62.564 55.3816 63.7872 54.2299 65.204 54.2299C66.6219 54.2299 67.844 55.3816 67.844 57.0657C67.8451 58.7311 66.6219 59.9015 65.204 59.9015ZM53.0182 53.8229V55.8073H57.768C57.6261 56.9238 57.2543 57.7389 56.6867 58.3054C55.9959 58.9962 54.9146 59.7585 53.0182 59.7585C50.0944 59.7585 47.8086 57.4012 47.8086 54.4774C47.8086 51.5536 50.0944 49.1963 53.0182 49.1963C54.5956 49.1963 55.7473 49.8167 56.5976 50.6142L57.9979 49.2139C56.8099 48.0798 55.2336 47.2119 53.0182 47.2119C49.0131 47.2119 45.646 50.4723 45.646 54.4774C45.646 58.4825 49.0131 61.7429 53.0182 61.7429C55.1797 61.7429 56.811 61.0334 58.0859 59.7046C59.3971 58.3934 59.8052 56.5498 59.8052 55.0615C59.8052 54.6017 59.77 54.176 59.6985 53.8218H53.0182V53.8229ZM102.857 55.364C102.468 54.319 101.28 52.3863 98.8519 52.3863C96.4418 52.3863 94.4387 54.2827 94.4387 57.0646C94.4387 59.687 96.4242 61.7429 99.0818 61.7429C101.226 61.7429 102.466 60.4317 102.981 59.6694L101.386 58.6057C100.855 59.3856 100.128 59.8993 99.0818 59.8993C98.0368 59.8993 97.2921 59.4208 96.8136 58.4814L103.069 55.8942L102.857 55.364ZM96.477 56.9238C96.4242 55.1154 97.8773 54.1947 98.9234 54.1947C99.7385 54.1947 100.429 54.6028 100.66 55.1869L96.477 56.9238ZM91.3917 61.4602H93.4465V47.7091H91.3917V61.4602ZM88.0235 53.4324H87.9531C87.4922 52.8824 86.6056 52.3863 85.4902 52.3863C83.1505 52.3863 81.0066 54.4422 81.0066 57.0833C81.0066 59.7057 83.1505 61.744 85.4902 61.744C86.6067 61.744 87.4922 61.2479 87.9531 60.6814H88.0235V61.3546C88.0235 63.1443 87.0665 64.1013 85.5254 64.1013C84.267 64.1013 83.4871 63.1982 83.1681 62.4359L81.3784 63.1806C81.8921 64.4203 83.2561 65.9449 85.5254 65.9449C87.9355 65.9449 89.9738 64.527 89.9738 61.0708V52.6712H88.0246V53.4324H88.0235ZM85.6673 59.9015C84.2494 59.9015 83.0625 58.7135 83.0625 57.0833C83.0625 55.4344 84.2494 54.2299 85.6673 54.2299C87.0665 54.2299 88.1654 55.4344 88.1654 57.0833C88.1654 58.7135 87.0665 59.9015 85.6673 59.9015ZM112.486 47.7091H107.568V61.4602H109.62V56.2506H112.485C114.76 56.2506 116.997 54.6039 116.997 51.9804C116.997 49.3569 114.761 47.7091 112.486 47.7091ZM112.539 54.3366H109.62V49.6231H112.539C114.074 49.6231 114.945 50.8936 114.945 51.9804C114.945 53.0452 114.074 54.3366 112.539 54.3366ZM125.224 52.3621C123.738 52.3621 122.199 53.0166 121.562 54.4675L123.384 55.2276C123.773 54.4675 124.499 54.2189 125.26 54.2189C126.321 54.2189 127.4 54.8558 127.418 55.9877V56.1296C127.046 55.9173 126.25 55.5994 125.277 55.5994C123.314 55.5994 121.314 56.6785 121.314 58.6948C121.314 60.5351 122.924 61.7198 124.728 61.7198C126.108 61.7198 126.869 61.1005 127.346 60.3745H127.417V61.436H129.399V56.1637C129.4 53.7239 127.576 52.3621 125.224 52.3621ZM124.976 59.8982C124.305 59.8982 123.366 59.5616 123.366 58.73C123.366 57.6685 124.535 57.2615 125.543 57.2615C126.444 57.2615 126.87 57.4562 127.418 57.7213C127.258 58.9962 126.162 59.8982 124.976 59.8982ZM136.617 52.6624L134.264 58.6244H134.194L131.752 52.6624H129.541L133.203 60.9949L131.115 65.6303H133.255L138.9 52.6624H136.617ZM118.13 61.4602H120.182V47.7091H118.13V61.4602Z" fill="white"/>
<path d="M52.6599 39.7284C52.6599 40.6502 52.3871 41.3839 51.8404 41.9317C51.22 42.5829 50.4104 42.9085 49.416 42.9085C48.4634 42.9085 47.6527 42.5785 46.9872 41.9185C46.3206 41.2574 45.9873 40.439 45.9873 39.4622C45.9873 38.4843 46.3206 37.6659 46.9872 37.0059C47.6527 36.3448 48.4634 36.0148 49.416 36.0148C49.889 36.0148 50.3411 36.1072 50.7701 36.2909C51.2002 36.4757 51.5445 36.721 51.8019 37.0279L51.2222 37.6087C50.7855 37.0862 50.1838 36.8255 49.4149 36.8255C48.7197 36.8255 48.1191 37.0697 47.612 37.5581C47.1049 38.0465 46.8519 38.6812 46.8519 39.4611C46.8519 40.241 47.1049 40.8757 47.612 41.3641C48.1191 41.8525 48.7197 42.0967 49.4149 42.0967C50.1519 42.0967 50.7668 41.8514 51.2585 41.3597C51.5775 41.0396 51.7623 40.5941 51.8118 40.0232H49.4149V39.2301H52.6126C52.6456 39.4028 52.6599 39.5689 52.6599 39.7284Z" fill="white"/>
<path d="M57.731 36.9719H54.7258V39.0641H57.4362V39.8572H54.7258V41.9494H57.731V42.7612H53.8777V36.1612H57.731V36.9719Z" fill="white"/>
<path d="M61.307 42.7612H60.4589V36.9719H58.6153V36.1612H63.1506V36.9719H61.307V42.7612Z" fill="white"/>
<path d="M66.4318 42.7612V36.1612H67.2799V42.7612H66.4318Z" fill="white"/>
<path d="M71.041 42.7612H70.1929V36.9719H68.3493V36.1612H72.8846V36.9719H71.041V42.7612Z" fill="white"/>
<path d="M81.4699 41.9087C80.8209 42.5753 80.0146 42.9086 79.0499 42.9086C78.0852 42.9086 77.2789 42.5753 76.631 41.9087C75.982 41.2421 75.6586 40.4259 75.6586 39.4612C75.6586 38.4965 75.982 37.6803 76.631 37.0137C77.2789 36.3471 78.0852 36.0127 79.0499 36.0127C80.0091 36.0127 80.8143 36.3482 81.4655 37.0181C82.1167 37.688 82.4423 38.502 82.4423 39.4612C82.4423 40.4259 82.1178 41.2421 81.4699 41.9087ZM77.2569 41.3554C77.7453 41.8504 78.3426 42.0968 79.0499 42.0968C79.7572 42.0968 80.3556 41.8493 80.8429 41.3554C81.3313 40.8604 81.5766 40.229 81.5766 39.4612C81.5766 38.6934 81.3313 38.062 80.8429 37.567C80.3556 37.072 79.7572 36.8256 79.0499 36.8256C78.3426 36.8256 77.7453 37.0731 77.2569 37.567C76.7696 38.062 76.5243 38.6934 76.5243 39.4612C76.5243 40.229 76.7696 40.8604 77.2569 41.3554Z" fill="white"/>
<path d="M83.6325 42.7612V36.1612H84.6643L87.8719 41.2949H87.9082L87.8719 40.0233V36.1612H88.72V42.7612H87.8345L84.4784 37.3778H84.4421L84.4784 38.6494V42.7612H83.6325Z" fill="white"/>
<path d="M52.6599 39.7284C52.6599 40.6502 52.3871 41.3839 51.8404 41.9317C51.22 42.5829 50.4104 42.9085 49.416 42.9085C48.4634 42.9085 47.6527 42.5785 46.9872 41.9185C46.3206 41.2574 45.9873 40.439 45.9873 39.4622C45.9873 38.4843 46.3206 37.6659 46.9872 37.0059C47.6527 36.3448 48.4634 36.0148 49.416 36.0148C49.889 36.0148 50.3411 36.1072 50.7701 36.2909C51.2002 36.4757 51.5445 36.721 51.8019 37.0279L51.2222 37.6087C50.7855 37.0862 50.1838 36.8255 49.4149 36.8255C48.7197 36.8255 48.1191 37.0697 47.612 37.5581C47.1049 38.0465 46.8519 38.6812 46.8519 39.4611C46.8519 40.241 47.1049 40.8757 47.612 41.3641C48.1191 41.8525 48.7197 42.0967 49.4149 42.0967C50.1519 42.0967 50.7668 41.8514 51.2585 41.3597C51.5775 41.0396 51.7623 40.5941 51.8118 40.0232H49.4149V39.2301H52.6126C52.6456 39.4028 52.6599 39.5689 52.6599 39.7284Z" stroke="white" stroke-width="0.22" stroke-miterlimit="10"/>
<path d="M57.731 36.9719H54.7258V39.0641H57.4362V39.8572H54.7258V41.9494H57.731V42.7612H53.8777V36.1612H57.731V36.9719Z" stroke="white" stroke-width="0.22" stroke-miterlimit="10"/>
<path d="M61.307 42.7612H60.4589V36.9719H58.6153V36.1612H63.1506V36.9719H61.307V42.7612Z" stroke="white" stroke-width="0.22" stroke-miterlimit="10"/>
<path d="M66.4318 42.7612V36.1612H67.2799V42.7612H66.4318Z" stroke="white" stroke-width="0.22" stroke-miterlimit="10"/>
<path d="M71.041 42.7612H70.1929V36.9719H68.3493V36.1612H72.8846V36.9719H71.041V42.7612Z" stroke="white" stroke-width="0.22" stroke-miterlimit="10"/>
<path d="M81.4699 41.9087C80.8209 42.5753 80.0146 42.9086 79.0499 42.9086C78.0852 42.9086 77.2789 42.5753 76.631 41.9087C75.982 41.2421 75.6586 40.4259 75.6586 39.4612C75.6586 38.4965 75.982 37.6803 76.631 37.0137C77.2789 36.3471 78.0852 36.0127 79.0499 36.0127C80.0091 36.0127 80.8143 36.3482 81.4655 37.0181C82.1167 37.688 82.4423 38.502 82.4423 39.4612C82.4423 40.4259 82.1178 41.2421 81.4699 41.9087ZM77.2569 41.3554C77.7453 41.8504 78.3426 42.0968 79.0499 42.0968C79.7572 42.0968 80.3556 41.8493 80.8429 41.3554C81.3313 40.8604 81.5766 40.229 81.5766 39.4612C81.5766 38.6934 81.3313 38.062 80.8429 37.567C80.3556 37.072 79.7572 36.8256 79.0499 36.8256C78.3426 36.8256 77.7453 37.0731 77.2569 37.567C76.7696 38.062 76.5243 38.6934 76.5243 39.4612C76.5243 40.229 76.7696 40.8604 77.2569 41.3554Z" stroke="white" stroke-width="0.22" stroke-miterlimit="10"/>
<path d="M83.6325 42.7612V36.1612H84.6643L87.8719 41.2949H87.9082L87.8719 40.0233V36.1612H88.72V42.7612H87.8345L84.4784 37.3778H84.4421L84.4784 38.6494V42.7612H83.6325Z" stroke="white" stroke-width="0.22" stroke-miterlimit="10"/>
<g filter="url(#filter0_ii_4964_59)">
<path d="M11.9795 36.7532C11.6594 37.092 11.4702 37.6178 11.4702 38.2987V62.6262C11.4702 63.3083 11.6594 63.833 11.9795 64.1718L12.0609 64.251L25.6888 50.6231V50.4625V50.3019L12.0609 36.6729L11.9795 36.7532Z" fill="url(#paint0_linear_4964_59)"/>
<path d="M30.2309 55.1671L25.689 50.623V50.4624V50.3018L30.232 45.7588L30.3343 45.8171L35.7166 48.8751C37.2533 49.7485 37.2533 51.1774 35.7166 52.0519L30.3343 55.1099L30.2309 55.1671Z" fill="url(#paint1_linear_4964_59)"/>
<g filter="url(#filter1_i_4964_59)">
<path d="M30.3341 55.1122L25.6877 50.4658L11.9795 64.1751C12.4855 64.7119 13.3226 64.7779 14.2653 64.2433L30.3341 55.1122Z" fill="url(#paint2_linear_4964_59)"/>
</g>
<path d="M30.3341 45.8171L14.2653 36.6871C13.3226 36.1514 12.4855 36.2185 11.9795 36.7553L25.6888 50.4646L30.3341 45.8171Z" fill="url(#paint3_linear_4964_59)"/>
</g>
<rect x="1.05" y="29.0119" width="147.4" height="42.9" rx="4.95" stroke="#A6A6A6" stroke-width="1.1"/>
<defs>
<filter id="filter0_ii_4964_59" x="11.4702" y="36.3174" width="25.3989" height="28.2949" filterUnits="userSpaceOnUse" color-interpolation-filters="sRGB">
<feFlood flood-opacity="0" result="BackgroundImageFix"/>
<feBlend mode="normal" in="SourceGraphic" in2="BackgroundImageFix" result="shape"/>
<feColorMatrix in="SourceAlpha" type="matrix" values="0 0 0 0 0 0 0 0 0 0 0 0 0 0 0 0 0 0 127 0" result="hardAlpha"/>
<feOffset dy="-0.165"/>
<feComposite in2="hardAlpha" operator="arithmetic" k2="-1" k3="1"/>
<feColorMatrix type="matrix" values="0 0 0 0 0 0 0 0 0 0 0 0 0 0 0 0 0 0 0.12 0"/>
<feBlend mode="normal" in2="shape" result="effect1_innerShadow_4964_59"/>
<feColorMatrix in="SourceAlpha" type="matrix" values="0 0 0 0 0 0 0 0 0 0 0 0 0 0 0 0 0 0 127 0" result="hardAlpha"/>
<feOffset dy="0.165"/>
<feComposite in2="hardAlpha" operator="arithmetic" k2="-1" k3="1"/>
<feColorMatrix type="matrix" values="0 0 0 0 1 0 0 0 0 1 0 0 0 0 1 0 0 0 0.25 0"/>
<feBlend mode="normal" in2="effect1_innerShadow_4964_59" result="effect2_innerShadow_4964_59"/>
</filter>
<filter id="filter1_i_4964_59" x="11.9795" y="50.4658" width="18.3545" height="14.1465" filterUnits="userSpaceOnUse" color-interpolation-filters="sRGB">
<feFlood flood-opacity="0" result="BackgroundImageFix"/>
<feBlend mode="normal" in="SourceGraphic" in2="BackgroundImageFix" result="shape"/>
<feColorMatrix in="SourceAlpha" type="matrix" values="0 0 0 0 0 0 0 0 0 0 0 0 0 0 0 0 0 0 127 0" result="hardAlpha"/>
<feOffset dy="-0.165"/>
<feComposite in2="hardAlpha" operator="arithmetic" k2="-1" k3="1"/>
<feColorMatrix type="matrix" values="0 0 0 0 0 0 0 0 0 0 0 0 0 0 0 0 0 0 0.08 0"/>
<feBlend mode="normal" in2="shape" result="effect1_innerShadow_4964_59"/>
</filter>
<linearGradient id="paint0_linear_4964_59" x1="24.4808" y1="38.0413" x2="6.0206" y2="56.5015" gradientUnits="userSpaceOnUse">
<stop stop-color="#00A0FF"/>
<stop offset="0.0066" stop-color="#00A1FF"/>
<stop offset="0.2601" stop-color="#00BEFF"/>
<stop offset="0.5122" stop-color="#00D2FF"/>
<stop offset="0.7604" stop-color="#00DFFF"/>
<stop offset="1" stop-color="#00E3FF"/>
</linearGradient>
<linearGradient id="paint1_linear_4964_59" x1="37.7169" y1="50.4624" x2="11.1014" y2="50.4624" gradientUnits="userSpaceOnUse">
<stop stop-color="#FFE000"/>
<stop offset="0.4087" stop-color="#FFBD00"/>
<stop offset="0.7754" stop-color="#FFA500"/>
<stop offset="1" stop-color="#FF9C00"/>
</linearGradient>
<linearGradient id="paint2_linear_4964_59" x1="27.8108" y1="52.9891" x2="2.77646" y2="78.0235" gradientUnits="userSpaceOnUse">
<stop stop-color="#FF3A44"/>
<stop offset="1" stop-color="#C31162"/>
</linearGradient>
<linearGradient id="paint3_linear_4964_59" x1="8.52703" y1="28.6568" x2="19.7056" y2="39.8354" gradientUnits="userSpaceOnUse">
<stop stop-color="#32A071"/>
<stop offset="0.0685" stop-color="#2DA771"/>
<stop offset="0.4762" stop-color="#15CF74"/>
<stop offset="0.8009" stop-color="#06E775"/>
<stop offset="1" stop-color="#00F076"/>
</linearGradient>
</defs>
</svg>
