<svg width="44" height="45" viewBox="0 0 44 45" fill="none" xmlns="http://www.w3.org/2000/svg">
<rect y="0.680664" width="44" height="44" rx="22" fill="white"/>
<path d="M19.066 20.3473C19.493 19.4411 20.6454 18.7918 22 18.7918C23.7183 18.7918 25.1112 19.8364 25.1112 21.1251C25.1112 22.2136 24.1174 23.1279 22.7733 23.3858C22.3515 23.4667 22 23.8067 22 24.2362M22 26.5696H22.0078M29 22.6807C29 26.5467 25.866 29.6807 22 29.6807C18.134 29.6807 15 26.5467 15 22.6807C15 18.8147 18.134 15.6807 22 15.6807C25.866 15.6807 29 18.8147 29 22.6807Z" stroke="#6D1830" stroke-width="1.67" stroke-linecap="round" stroke-linejoin="round"/>
</svg>
