<svg width="48" height="49" viewBox="0 0 48 49" fill="none" xmlns="http://www.w3.org/2000/svg">
<rect y="0.461914" width="48" height="48" rx="24" fill="#6D1830"/>
<path d="M30.7375 22.7382C30.1142 19.7282 27.3367 17.4619 24 17.4619C21.3508 17.4619 19.05 18.8969 17.9042 20.9882C15.145 21.2769 13 23.4994 13 26.2119C13 27.6043 13.5795 28.9397 14.6109 29.9242C15.6424 30.9088 17.0413 31.4619 18.5 31.4619H30.4167C31.0186 31.4619 31.6146 31.3488 32.1706 31.1289C32.7267 30.909 33.232 30.5868 33.6576 30.1805C34.0832 29.7743 34.4208 29.292 34.6511 28.7612C34.8814 28.2304 35 27.6614 35 27.0869C35 24.7769 33.1208 22.9044 30.7375 22.7382Z" fill="white"/>
</svg>
