<svg width="254" height="25" viewBox="0 0 254 25" fill="none" xmlns="http://www.w3.org/2000/svg">
<path d="M11.756 3.84607C12.0554 2.92481 13.3587 2.92481 13.6581 3.84607L15.1769 8.51998C15.3108 8.93197 15.6947 9.21091 16.1279 9.21093L21.0424 9.21111C22.0111 9.21115 22.4139 10.4507 21.6302 11.0201L17.6544 13.9089C17.3039 14.1636 17.1573 14.6149 17.2911 15.0269L18.8096 19.7009C19.1089 20.6222 18.0545 21.3883 17.2708 20.8189L13.2948 17.9304C12.9443 17.6758 12.4698 17.6758 12.1193 17.9304L8.14325 20.8189C7.35955 21.3883 6.30513 20.6222 6.60443 19.7009L8.12292 15.0269C8.25677 14.6149 8.11012 14.1636 7.75967 13.9089L3.78386 11.0201C3.0002 10.4507 3.40296 9.21115 4.37164 9.21111L9.28614 9.21093C9.71934 9.21091 10.1033 8.93197 10.2371 8.51998L11.756 3.84607Z" fill="#F59E0B"/>
<path d="M35.756 3.84607C36.0554 2.92481 37.3587 2.92481 37.6581 3.84607L39.1769 8.51998C39.3108 8.93197 39.6947 9.21091 40.1279 9.21093L45.0424 9.21111C46.0111 9.21115 46.4139 10.4507 45.6302 11.0201L41.6544 13.9089C41.3039 14.1636 41.1573 14.6149 41.2911 15.0269L42.8096 19.7009C43.1089 20.6222 42.0545 21.3883 41.2708 20.8189L37.2948 17.9304C36.9443 17.6758 36.4698 17.6758 36.1193 17.9304L32.1433 20.8189C31.3595 21.3883 30.3051 20.6222 30.6044 19.7009L32.1229 15.0269C32.2568 14.6149 32.1101 14.1636 31.7597 13.9089L27.7839 11.0201C27.0002 10.4507 27.403 9.21115 28.3716 9.21111L33.2861 9.21093C33.7193 9.21091 34.1033 8.93197 34.2371 8.51998L35.756 3.84607Z" fill="#F59E0B"/>
<path d="M59.756 3.84607C60.0554 2.92481 61.3587 2.92481 61.6581 3.84607L63.1769 8.51998C63.3108 8.93197 63.6947 9.21091 64.1279 9.21093L69.0424 9.21111C70.0111 9.21115 70.4139 10.4507 69.6302 11.0201L65.6544 13.9089C65.3039 14.1636 65.1573 14.6149 65.2911 15.0269L66.8096 19.7009C67.1089 20.6222 66.0545 21.3883 65.2708 20.8189L61.2948 17.9304C60.9443 17.6758 60.4698 17.6758 60.1193 17.9304L56.1433 20.8189C55.3595 21.3883 54.3051 20.6222 54.6044 19.7009L56.1229 15.0269C56.2568 14.6149 56.1101 14.1636 55.7597 13.9089L51.7839 11.0201C51.0002 10.4507 51.403 9.21115 52.3716 9.21111L57.2861 9.21093C57.7193 9.21091 58.1033 8.93197 58.2371 8.51998L59.756 3.84607Z" fill="#F59E0B"/>
<path d="M83.756 3.84607C84.0554 2.92481 85.3587 2.92481 85.6581 3.84607L87.1769 8.51998C87.3108 8.93197 87.6947 9.21091 88.1279 9.21093L93.0424 9.21111C94.0111 9.21115 94.4139 10.4507 93.6302 11.0201L89.6544 13.9089C89.3039 14.1636 89.1573 14.6149 89.2911 15.0269L90.8096 19.7009C91.1089 20.6222 90.0545 21.3883 89.2708 20.8189L85.2948 17.9304C84.9443 17.6758 84.4698 17.6758 84.1193 17.9304L80.1433 20.8189C79.3595 21.3883 78.3051 20.6222 78.6044 19.7009L80.1229 15.0269C80.2568 14.6149 80.1101 14.1636 79.7597 13.9089L75.7839 11.0201C75.0002 10.4507 75.403 9.21115 76.3716 9.21111L81.2861 9.21093C81.7193 9.21091 82.1033 8.93197 82.2371 8.51998L83.756 3.84607Z" fill="#F59E0B"/>
<path d="M107.756 3.84607C108.055 2.92481 109.359 2.92481 109.658 3.84607L111.177 8.51998C111.311 8.93197 111.695 9.21091 112.128 9.21093L117.042 9.21111C118.011 9.21115 118.414 10.4507 117.63 11.0201L113.654 13.9089C113.304 14.1636 113.157 14.6149 113.291 15.0269L114.81 19.7009C115.109 20.6222 114.055 21.3883 113.271 20.8189L109.295 17.9304C108.944 17.6758 108.47 17.6758 108.119 17.9304L104.143 20.8189C103.36 21.3883 102.305 20.6222 102.604 19.7009L104.123 15.0269C104.257 14.6149 104.11 14.1636 103.76 13.9089L99.7839 11.0201C99.0002 10.4507 99.403 9.21115 100.372 9.21111L105.286 9.21093C105.719 9.21091 106.103 8.93197 106.237 8.51998L107.756 3.84607Z" fill="#F59E0B"/>
<path d="M133.405 11.3159H131.539V17.9194H130.404V11.3159H129.078V10.769L130.404 10.3931V9.89404C130.404 9.26514 130.498 8.75472 130.685 8.36279C130.871 7.96631 131.143 7.67464 131.498 7.48779C131.854 7.30094 132.286 7.20752 132.797 7.20752C133.084 7.20752 133.346 7.23258 133.583 7.28271C133.825 7.33285 134.036 7.38981 134.219 7.45361L133.925 8.34912C133.77 8.29899 133.594 8.25342 133.398 8.2124C133.207 8.16683 133.011 8.14404 132.811 8.14404C132.378 8.14404 132.056 8.28532 131.847 8.56787C131.642 8.84587 131.539 9.28337 131.539 9.88037V10.4272H133.405V11.3159ZM138.44 10.2905C138.591 10.2905 138.748 10.2996 138.912 10.3179C139.076 10.3315 139.222 10.3521 139.35 10.3794L139.206 11.4321C139.083 11.4002 138.946 11.3752 138.796 11.3569C138.646 11.3387 138.504 11.3296 138.372 11.3296C138.071 11.3296 137.786 11.3911 137.518 11.5142C137.253 11.6326 137.021 11.8058 136.82 12.0337C136.62 12.257 136.463 12.5282 136.349 12.8472C136.235 13.1616 136.178 13.5125 136.178 13.8999V17.9194H135.036V10.4272H135.979L136.103 11.8081H136.15C136.305 11.5301 136.492 11.2772 136.711 11.0493C136.93 10.8169 137.183 10.6323 137.47 10.4956C137.761 10.3589 138.085 10.2905 138.44 10.2905ZM147.475 14.1597C147.475 14.7749 147.395 15.3241 147.235 15.8071C147.076 16.2902 146.846 16.6981 146.545 17.0308C146.244 17.3634 145.88 17.6187 145.451 17.7964C145.027 17.9696 144.547 18.0562 144.009 18.0562C143.507 18.0562 143.047 17.9696 142.628 17.7964C142.213 17.6187 141.853 17.3634 141.548 17.0308C141.247 16.6981 141.012 16.2902 140.844 15.8071C140.68 15.3241 140.598 14.7749 140.598 14.1597C140.598 13.3394 140.737 12.6421 141.015 12.0679C141.293 11.4891 141.689 11.0493 142.204 10.7485C142.724 10.4432 143.341 10.2905 144.057 10.2905C144.74 10.2905 145.337 10.4432 145.848 10.7485C146.363 11.0539 146.761 11.4959 147.044 12.0747C147.331 12.6489 147.475 13.3439 147.475 14.1597ZM141.773 14.1597C141.773 14.7612 141.853 15.283 142.013 15.7251C142.172 16.1672 142.418 16.509 142.751 16.7505C143.084 16.992 143.512 17.1128 144.036 17.1128C144.556 17.1128 144.982 16.992 145.314 16.7505C145.652 16.509 145.9 16.1672 146.06 15.7251C146.219 15.283 146.299 14.7612 146.299 14.1597C146.299 13.5627 146.219 13.0477 146.06 12.6147C145.9 12.1772 145.654 11.84 145.321 11.603C144.989 11.366 144.558 11.2476 144.029 11.2476C143.25 11.2476 142.678 11.505 142.313 12.02C141.953 12.535 141.773 13.2482 141.773 14.1597ZM157.821 10.2905C158.646 10.2905 159.268 10.507 159.688 10.9399C160.107 11.3683 160.316 12.0588 160.316 13.0112V17.9194H159.195V13.0659C159.195 12.4598 159.063 12.0063 158.799 11.7056C158.539 11.4002 158.152 11.2476 157.637 11.2476C156.912 11.2476 156.386 11.4572 156.058 11.8765C155.729 12.2957 155.565 12.9132 155.565 13.729V17.9194H154.438V13.0659C154.438 12.6603 154.378 12.3231 154.26 12.0542C154.146 11.7853 153.973 11.5848 153.74 11.4526C153.512 11.3159 153.223 11.2476 152.872 11.2476C152.375 11.2476 151.977 11.3501 151.676 11.5552C151.375 11.7603 151.156 12.0656 151.02 12.4712C150.887 12.8722 150.821 13.3667 150.821 13.9546V17.9194H149.687V10.4272H150.603L150.773 11.4868H150.835C150.985 11.2271 151.174 11.0083 151.402 10.8306C151.63 10.6528 151.885 10.5184 152.168 10.4272C152.451 10.3361 152.751 10.2905 153.07 10.2905C153.64 10.2905 154.116 10.3976 154.499 10.6118C154.886 10.8215 155.167 11.1427 155.34 11.5757H155.401C155.647 11.1427 155.985 10.8215 156.413 10.6118C156.841 10.3976 157.311 10.2905 157.821 10.2905ZM170.503 17.9194H169.396V10.8374C169.396 10.5685 169.396 10.3384 169.396 10.147C169.4 9.95101 169.405 9.77327 169.409 9.61377C169.418 9.44971 169.43 9.28337 169.443 9.11475C169.302 9.26058 169.17 9.3859 169.047 9.49072C168.924 9.59098 168.771 9.71631 168.589 9.8667L167.447 10.7827L166.853 10.0103L169.56 7.92529H170.503V17.9194ZM181.144 12.9087C181.144 13.7199 181.082 14.4445 180.959 15.0825C180.836 15.7205 180.642 16.2606 180.378 16.7026C180.114 17.1447 179.772 17.4819 179.353 17.7144C178.933 17.9422 178.43 18.0562 177.842 18.0562C177.099 18.0562 176.484 17.8534 175.996 17.4478C175.513 17.0422 175.151 16.4565 174.909 15.6909C174.672 14.9207 174.554 13.9933 174.554 12.9087C174.554 11.8423 174.661 10.9263 174.875 10.1606C175.094 9.39046 175.445 8.80029 175.928 8.39014C176.411 7.97542 177.049 7.76807 177.842 7.76807C178.594 7.76807 179.214 7.97314 179.701 8.3833C180.189 8.7889 180.551 9.37679 180.788 10.147C181.025 10.9126 181.144 11.8332 181.144 12.9087ZM175.695 12.9087C175.695 13.8384 175.766 14.6131 175.907 15.2329C176.049 15.8527 176.276 16.3175 176.591 16.6274C176.91 16.9328 177.327 17.0854 177.842 17.0854C178.357 17.0854 178.771 16.9328 179.086 16.6274C179.405 16.3221 179.635 15.8595 179.776 15.2397C179.922 14.62 179.995 13.8429 179.995 12.9087C179.995 11.9927 179.924 11.2271 179.783 10.6118C179.642 9.99202 179.414 9.52718 179.1 9.21729C178.785 8.90283 178.366 8.74561 177.842 8.74561C177.318 8.74561 176.898 8.90283 176.584 9.21729C176.27 9.52718 176.042 9.99202 175.9 10.6118C175.764 11.2271 175.695 11.9927 175.695 12.9087ZM189.405 12.9087C189.405 13.7199 189.344 14.4445 189.221 15.0825C189.098 15.7205 188.904 16.2606 188.64 16.7026C188.375 17.1447 188.034 17.4819 187.614 17.7144C187.195 17.9422 186.691 18.0562 186.104 18.0562C185.361 18.0562 184.745 17.8534 184.258 17.4478C183.775 17.0422 183.412 16.4565 183.171 15.6909C182.934 14.9207 182.815 13.9933 182.815 12.9087C182.815 11.8423 182.923 10.9263 183.137 10.1606C183.355 9.39046 183.706 8.80029 184.189 8.39014C184.673 7.97542 185.311 7.76807 186.104 7.76807C186.855 7.76807 187.475 7.97314 187.963 8.3833C188.451 8.7889 188.813 9.37679 189.05 10.147C189.287 10.9126 189.405 11.8332 189.405 12.9087ZM183.957 12.9087C183.957 13.8384 184.028 14.6131 184.169 15.2329C184.31 15.8527 184.538 16.3175 184.853 16.6274C185.172 16.9328 185.589 17.0854 186.104 17.0854C186.618 17.0854 187.033 16.9328 187.348 16.6274C187.667 16.3221 187.897 15.8595 188.038 15.2397C188.184 14.62 188.257 13.8429 188.257 12.9087C188.257 11.9927 188.186 11.2271 188.045 10.6118C187.904 9.99202 187.676 9.52718 187.361 9.21729C187.047 8.90283 186.628 8.74561 186.104 8.74561C185.579 8.74561 185.16 8.90283 184.846 9.21729C184.531 9.52718 184.303 9.99202 184.162 10.6118C184.025 11.2271 183.957 11.9927 183.957 12.9087ZM194.83 12.519H197.646V13.4487H194.83V16.3472H193.894V13.4487H191.077V12.519H193.894V9.60693H194.83V12.519ZM207.122 10.2905C207.272 10.2905 207.43 10.2996 207.594 10.3179C207.758 10.3315 207.904 10.3521 208.031 10.3794L207.888 11.4321C207.765 11.4002 207.628 11.3752 207.478 11.3569C207.327 11.3387 207.186 11.3296 207.054 11.3296C206.753 11.3296 206.468 11.3911 206.199 11.5142C205.935 11.6326 205.702 11.8058 205.502 12.0337C205.301 12.257 205.144 12.5282 205.03 12.8472C204.916 13.1616 204.859 13.5125 204.859 13.8999V17.9194H203.718V10.4272H204.661L204.784 11.8081H204.832C204.987 11.5301 205.174 11.2772 205.393 11.0493C205.611 10.8169 205.864 10.6323 206.151 10.4956C206.443 10.3589 206.767 10.2905 207.122 10.2905ZM212.581 10.2905C213.219 10.2905 213.766 10.4318 214.222 10.7144C214.677 10.9969 215.026 11.3934 215.268 11.9038C215.509 12.4097 215.63 13.0021 215.63 13.6812V14.3853H210.455C210.469 15.2648 210.688 15.9347 211.111 16.395C211.535 16.8553 212.132 17.0854 212.902 17.0854C213.376 17.0854 213.796 17.0422 214.16 16.9556C214.525 16.869 214.903 16.7414 215.295 16.5728V17.5708C214.917 17.7394 214.541 17.8625 214.167 17.9399C213.798 18.0174 213.36 18.0562 212.854 18.0562C212.134 18.0562 211.506 17.9103 210.968 17.6187C210.435 17.3224 210.02 16.8895 209.724 16.3198C209.427 15.7502 209.279 15.0529 209.279 14.228C209.279 13.4214 209.414 12.7241 209.683 12.1362C209.956 11.5438 210.339 11.0881 210.831 10.769C211.328 10.45 211.911 10.2905 212.581 10.2905ZM212.567 11.2202C211.961 11.2202 211.478 11.4185 211.118 11.8149C210.758 12.2114 210.544 12.7651 210.476 13.4761H214.44C214.436 13.0295 214.365 12.6375 214.229 12.3003C214.096 11.9585 213.894 11.6942 213.62 11.5073C213.347 11.3159 212.996 11.2202 212.567 11.2202ZM219.455 17.9194L216.611 10.4272H217.828L219.476 14.9595C219.59 15.2694 219.706 15.6112 219.824 15.9849C219.943 16.3586 220.025 16.6593 220.07 16.8872H220.118C220.173 16.6593 220.264 16.3586 220.392 15.9849C220.519 15.6066 220.635 15.2648 220.74 14.9595L222.388 10.4272H223.604L220.754 17.9194H219.455ZM226.192 10.4272V17.9194H225.058V10.4272H226.192ZM225.639 7.62451C225.826 7.62451 225.985 7.68604 226.117 7.80908C226.254 7.92757 226.322 8.11442 226.322 8.36963C226.322 8.62028 226.254 8.80713 226.117 8.93018C225.985 9.05322 225.826 9.11475 225.639 9.11475C225.443 9.11475 225.279 9.05322 225.146 8.93018C225.019 8.80713 224.955 8.62028 224.955 8.36963C224.955 8.11442 225.019 7.92757 225.146 7.80908C225.279 7.68604 225.443 7.62451 225.639 7.62451ZM231.733 10.2905C232.371 10.2905 232.918 10.4318 233.374 10.7144C233.83 10.9969 234.178 11.3934 234.42 11.9038C234.661 12.4097 234.782 13.0021 234.782 13.6812V14.3853H229.607C229.621 15.2648 229.84 15.9347 230.264 16.395C230.688 16.8553 231.285 17.0854 232.055 17.0854C232.529 17.0854 232.948 17.0422 233.312 16.9556C233.677 16.869 234.055 16.7414 234.447 16.5728V17.5708C234.069 17.7394 233.693 17.8625 233.319 17.9399C232.95 18.0174 232.513 18.0562 232.007 18.0562C231.287 18.0562 230.658 17.9103 230.12 17.6187C229.587 17.3224 229.172 16.8895 228.876 16.3198C228.58 15.7502 228.432 15.0529 228.432 14.228C228.432 13.4214 228.566 12.7241 228.835 12.1362C229.108 11.5438 229.491 11.0881 229.983 10.769C230.48 10.45 231.063 10.2905 231.733 10.2905ZM231.72 11.2202C231.114 11.2202 230.631 11.4185 230.271 11.8149C229.91 12.2114 229.696 12.7651 229.628 13.4761H233.593C233.588 13.0295 233.518 12.6375 233.381 12.3003C233.249 11.9585 233.046 11.6942 232.772 11.5073C232.499 11.3159 232.148 11.2202 231.72 11.2202ZM243.058 17.9058L241.725 13.5444C241.665 13.3576 241.608 13.1753 241.554 12.9976C241.504 12.8153 241.456 12.6421 241.41 12.478C241.369 12.3094 241.33 12.1545 241.294 12.0132C241.262 11.8674 241.235 11.742 241.212 11.6372H241.164C241.146 11.742 241.121 11.8674 241.089 12.0132C241.057 12.1545 241.018 12.3094 240.973 12.478C240.932 12.6466 240.886 12.8244 240.836 13.0112C240.786 13.1935 240.729 13.3781 240.665 13.5649L239.271 17.9058H237.992L235.928 10.4136H237.104L238.184 14.5493C238.257 14.8228 238.325 15.0939 238.389 15.3628C238.457 15.6271 238.514 15.8778 238.56 16.1147C238.61 16.3472 238.646 16.55 238.669 16.7231H238.724C238.751 16.6092 238.781 16.4725 238.812 16.313C238.849 16.1535 238.888 15.9849 238.929 15.8071C238.974 15.6248 239.022 15.4448 239.072 15.2671C239.122 15.0848 239.173 14.9139 239.223 14.7544L240.604 10.4136H241.827L243.16 14.7476C243.229 14.9663 243.295 15.1942 243.358 15.4312C243.427 15.6681 243.488 15.8983 243.543 16.1216C243.598 16.3403 243.636 16.5363 243.659 16.7095H243.714C243.732 16.5545 243.766 16.3631 243.816 16.1353C243.867 15.9074 243.924 15.6567 243.987 15.3833C244.056 15.1099 244.126 14.8319 244.199 14.5493L245.293 10.4136H246.448L244.377 17.9058H243.058ZM252.912 15.8687C252.912 16.3472 252.791 16.7505 252.55 17.0786C252.313 17.4022 251.971 17.646 251.524 17.8101C251.082 17.9741 250.554 18.0562 249.938 18.0562C249.414 18.0562 248.961 18.0151 248.578 17.9331C248.195 17.8511 247.86 17.7349 247.573 17.5845V16.5386C247.879 16.689 248.243 16.8257 248.667 16.9487C249.091 17.0718 249.524 17.1333 249.966 17.1333C250.613 17.1333 251.082 17.0285 251.374 16.8188C251.666 16.6092 251.812 16.3244 251.812 15.9644C251.812 15.7593 251.752 15.5793 251.634 15.4243C251.52 15.2648 251.326 15.1121 251.053 14.9663C250.779 14.8159 250.401 14.6519 249.918 14.4741C249.439 14.2918 249.025 14.1118 248.674 13.9341C248.327 13.7518 248.059 13.5308 247.867 13.271C247.68 13.0112 247.587 12.674 247.587 12.2593C247.587 11.6258 247.842 11.1405 248.353 10.8032C248.868 10.4614 249.542 10.2905 250.376 10.2905C250.827 10.2905 251.249 10.3361 251.641 10.4272C252.037 10.5138 252.406 10.6323 252.748 10.7827L252.365 11.6919C252.055 11.5597 251.725 11.4481 251.374 11.3569C251.023 11.2658 250.665 11.2202 250.301 11.2202C249.777 11.2202 249.373 11.3068 249.091 11.48C248.813 11.6532 248.674 11.8901 248.674 12.1909C248.674 12.4233 248.738 12.6147 248.865 12.7651C248.997 12.9155 249.207 13.0568 249.494 13.189C249.781 13.3211 250.16 13.4761 250.629 13.6538C251.098 13.827 251.504 14.007 251.846 14.1938C252.188 14.3761 252.45 14.5994 252.632 14.8638C252.819 15.1235 252.912 15.4585 252.912 15.8687Z" fill="#6B7280"/>
</svg>
